<?xml version="1.0" standalone="no"?>
<!DOCTYPE svg PUBLIC "-//W3C//DTD SVG 20010904//EN"
 "http://www.w3.org/TR/2001/REC-SVG-20010904/DTD/svg10.dtd">
<svg version="1.0" xmlns="http://www.w3.org/2000/svg"
 width="723.000000pt" height="239.000000pt" viewBox="0 0 723.000000 239.000000"
 preserveAspectRatio="xMidYMid meet">

<g transform="translate(0.000000,239.000000) scale(0.100000,-0.100000)"
fill="#000000" stroke="none">
<path d="M2440 1195 l0 -1195 30 0 30 0 0 1195 0 1195 -30 0 -30 0 0 -1195z"/>
<path d="M1314 2219 c-6 -26 -19 -49 -34 -60 -24 -19 -28 -18 -150 7 -184 38
-412 44 -535 15 -51 -12 -132 -42 -185 -68 -80 -40 -109 -61 -185 -138 -102
-101 -153 -182 -192 -300 -38 -115 -45 -325 -14 -445 54 -216 186 -381 385
-482 62 -31 81 -37 87 -26 14 22 -1 51 -44 87 -206 169 -297 370 -297 654 0
126 22 232 69 332 72 153 173 260 306 325 219 108 468 68 650 -102 79 -73 120
-141 136 -220 6 -32 16 -58 20 -58 5 0 9 117 9 260 0 143 -4 260 -9 260 -4 0
-12 -19 -17 -41z"/>
<path d="M6865 2171 c-76 -19 -151 -77 -188 -146 -17 -31 -22 -58 -22 -115 0
-85 20 -133 77 -186 64 -61 113 -79 213 -79 96 0 136 14 203 70 83 70 108 214
54 316 -59 113 -202 172 -337 140z m163 -36 c75 -32 121 -101 129 -196 11
-114 -34 -207 -120 -250 -58 -30 -159 -24 -214 13 -61 40 -93 112 -93 207 1
113 43 191 125 227 41 18 128 17 173 -1z"/>
<path d="M3181 2145 c35 -19 39 -45 39 -246 0 -176 -7 -218 -40 -226 -11 -3
-20 -9 -20 -14 0 -13 269 -11 330 2 75 16 139 63 173 129 25 48 28 63 24 120
-7 105 -51 171 -147 221 -41 22 -59 24 -215 27 -154 2 -168 1 -144 -13z m304
-33 c85 -43 126 -115 126 -217 0 -137 -82 -215 -227 -215 -107 0 -104 -6 -104
241 0 238 -8 220 100 215 41 -2 80 -11 105 -24z"/>
<path d="M3920 2147 l25 -13 0 -224 c0 -224 0 -225 -22 -235 -13 -5 -23 -13
-23 -17 0 -5 74 -8 164 -8 l164 0 10 42 c6 23 10 44 8 46 -2 1 -17 -11 -34
-28 -28 -28 -36 -30 -99 -30 -40 0 -74 5 -81 12 -8 8 -12 47 -12 111 l0 100
72 -5 c60 -5 74 -9 89 -29 19 -24 19 -24 19 41 l0 65 -19 -25 c-17 -21 -29
-25 -90 -28 l-71 -4 0 111 0 111 64 0 c77 0 116 -13 123 -40 9 -34 23 -22 23
20 l0 40 -167 0 c-142 0 -164 -2 -143 -13z"/>
<path d="M4440 2153 c49 -18 50 -24 50 -244 0 -175 -2 -210 -16 -223 -8 -9
-22 -16 -30 -16 -8 0 -14 -4 -14 -10 0 -6 63 -10 168 -10 l169 0 10 47 c12 52
8 69 -9 39 -25 -45 -46 -56 -109 -56 -104 0 -99 -11 -99 228 0 114 4 212 8
219 4 7 19 16 32 22 19 7 1 10 -75 10 -55 -1 -93 -3 -85 -6z"/>
<path d="M4970 2153 c49 -18 50 -24 50 -237 0 -166 -3 -205 -16 -224 -8 -12
-22 -22 -30 -22 -8 0 -14 -4 -14 -10 0 -6 37 -10 90 -10 53 0 90 4 90 10 0 6
-6 10 -14 10 -32 0 -46 41 -46 137 l0 93 70 0 c64 0 73 -3 95 -26 l25 -27 0
63 0 63 -25 -27 c-22 -23 -31 -26 -95 -26 l-70 0 0 110 0 110 78 0 c83 0 90
-2 115 -40 l17 -24 0 42 0 42 -167 -1 c-93 0 -161 -3 -153 -6z"/>
<path d="M5523 2144 l27 -15 -2 -222 c-3 -219 -3 -222 -25 -232 -42 -18 -24
-25 67 -25 53 0 90 4 90 10 0 6 -6 10 -13 10 -8 0 -21 8 -30 18 -15 16 -17 47
-17 224 0 217 1 223 50 241 8 3 -28 6 -80 6 -90 0 -94 -1 -67 -15z"/>
<path d="M5893 2130 l47 -30 0 -199 c0 -168 -2 -202 -16 -215 -8 -9 -22 -16
-30 -16 -8 0 -14 -4 -14 -10 0 -6 32 -10 75 -10 43 0 75 4 75 10 0 6 -6 10
-14 10 -8 0 -22 7 -30 16 -13 13 -16 44 -15 192 l0 177 202 -207 c111 -115
205 -208 210 -208 4 0 7 107 7 238 0 254 0 257 50 275 8 3 -21 5 -65 5 -44 0
-73 -2 -65 -5 48 -18 50 -26 50 -217 l-1 -181 -197 203 -197 203 -59 -1 -60 0
47 -30z"/>
<path d="M474 1572 c3 -5 19 -12 36 -16 17 -3 44 -18 60 -34 25 -25 29 -38 35
-113 4 -46 5 -320 3 -609 -3 -596 1 -563 -86 -603 l-47 -22 330 -3 c382 -3
534 7 644 44 240 81 392 272 432 544 34 238 -34 454 -195 615 -92 92 -179 143
-303 177 -73 20 -105 22 -497 26 -259 2 -416 0 -412 -6z m860 -45 c106 -37
160 -70 228 -138 169 -172 225 -523 128 -810 -68 -203 -196 -321 -396 -364
-39 -9 -153 -18 -264 -22 -217 -7 -249 0 -272 55 -6 15 -13 112 -16 217 l-4
190 93 2 c59 1 151 13 246 32 194 39 216 40 255 1 16 -16 31 -30 34 -30 2 0 4
127 4 283 0 167 4 297 11 320 10 39 56 77 91 77 9 0 20 5 23 10 4 7 -63 10
-194 10 -127 0 -201 -4 -201 -10 0 -5 10 -10 23 -10 12 0 36 -9 54 -20 47 -28
54 -67 51 -307 l-3 -208 -72 -41 c-111 -63 -170 -79 -298 -79 l-110 0 -3 345
c-4 422 0 463 39 503 l29 29 223 -4 c211 -4 226 -5 301 -31z"/>
<path d="M5717 1442 c-16 -17 -23 -52 -12 -52 3 0 14 5 24 12 15 9 28 9 59 0
77 -23 132 -6 132 41 0 20 -4 21 -29 5 -15 -9 -28 -9 -59 0 -56 17 -96 15
-115 -6z"/>
<path d="M3355 1348 c-191 -71 -247 -297 -107 -441 54 -55 122 -77 240 -77 53
0 114 3 135 6 l37 7 0 82 c0 67 3 85 18 98 10 10 24 17 30 17 7 0 12 5 12 10
0 6 -37 10 -90 10 -53 0 -90 -4 -90 -10 0 -5 6 -10 14 -10 30 0 46 -30 46 -89
0 -77 -13 -93 -83 -99 -169 -14 -274 86 -270 258 2 128 78 212 203 227 77 9
190 -40 190 -84 0 -7 5 -13 10 -13 6 0 10 26 10 58 l0 57 -138 2 c-82 1 -149
-2 -167 -9z"/>
<path d="M4025 1134 c-79 -224 -103 -274 -131 -274 -8 0 -14 -4 -14 -10 0 -6
31 -10 73 -10 69 1 71 1 45 16 -16 8 -28 18 -28 22 0 4 12 42 26 85 l26 78 91
-3 91 -3 28 -75 c15 -41 28 -78 28 -82 0 -5 -15 -14 -32 -22 -31 -14 -28 -14
67 -15 90 0 98 1 81 14 -11 8 -23 15 -27 15 -9 0 -43 81 -127 305 -61 162 -71
180 -93 183 -23 3 -28 -8 -104 -224z m127 38 l36 -97 -70 -3 c-39 -2 -73 -1
-75 2 -3 2 10 50 28 105 18 55 35 98 39 95 3 -3 21 -49 42 -102z"/>
<path d="M6491 1338 c-5 -13 -39 -108 -76 -213 -83 -234 -92 -254 -124 -268
-26 -11 -26 -11 12 -15 20 -2 54 -1 75 1 32 3 34 5 15 12 -29 9 -29 30 -1 117
l22 68 92 0 91 0 27 -74 c32 -92 32 -100 -1 -113 -23 -9 -12 -11 67 -12 l95
-1 -31 24 c-26 21 -45 63 -119 260 -81 216 -91 236 -112 236 -15 0 -27 -8 -32
-22z m83 -245 c7 -22 6 -23 -68 -23 -42 0 -76 1 -76 3 0 4 58 176 66 197 5 13
52 -93 78 -177z"/>
<path d="M4460 1342 c0 -4 12 -12 28 -18 24 -9 39 -39 126 -253 54 -133 104
-240 110 -238 6 2 48 102 93 222 88 232 104 265 134 272 43 12 14 23 -56 23
-41 0 -75 -4 -75 -9 0 -5 10 -11 23 -13 37 -5 31 -42 -37 -223 l-64 -170 -17
40 c-69 163 -126 317 -123 332 2 10 13 19 26 21 12 2 22 8 22 13 0 5 -43 9
-95 9 -52 0 -95 -4 -95 -8z"/>
<path d="M5150 1341 c0 -5 11 -12 24 -15 13 -3 26 -16 30 -28 9 -37 7 -384 -3
-411 -5 -13 -20 -28 -33 -32 -19 -7 -15 -9 25 -12 26 -2 68 -3 95 -1 45 3 46
4 21 15 -15 6 -29 19 -33 28 -10 28 -7 405 4 426 6 10 20 19 30 19 11 0 20 5
20 10 0 6 -37 10 -90 10 -49 0 -90 -4 -90 -9z"/>
<path d="M5500 1340 c0 -5 6 -10 14 -10 8 0 28 -12 45 -26 l31 -26 0 -188 c0
-104 -3 -196 -6 -205 -4 -9 -18 -22 -33 -28 -26 -11 -26 -11 11 -15 21 -2 57
-2 80 0 42 4 42 4 17 15 -15 6 -29 19 -33 28 -3 9 -6 94 -6 188 l0 172 201
-207 c110 -115 205 -208 210 -208 5 0 9 97 9 231 0 238 5 269 40 269 11 0 20
5 20 10 0 6 -32 10 -75 10 -43 0 -75 -4 -75 -10 0 -5 8 -10 19 -10 38 0 42
-20 39 -207 l-3 -179 -195 203 -195 202 -57 1 c-32 0 -58 -4 -58 -10z"/>
<path d="M5100 460 c-16 -16 -20 -31 -18 -63 3 -36 9 -46 52 -78 27 -21 53
-45 58 -53 13 -24 -8 -56 -37 -56 -25 0 -65 31 -65 50 0 6 -4 10 -10 10 -5 0
-10 -17 -10 -38 l0 -38 63 -2 c55 -2 66 0 86 22 17 18 22 33 19 62 -3 33 -10
44 -60 82 -57 43 -69 67 -46 90 19 19 45 14 66 -13 26 -33 32 -32 32 8 l0 34
-55 2 c-43 1 -59 -3 -75 -19z"/>
<path d="M5773 464 c-96 -48 -98 -210 -4 -259 72 -37 173 -8 205 59 62 131
-72 263 -201 200z m109 -24 c36 -28 51 -72 46 -130 -13 -133 -150 -133 -173
-1 -18 109 57 187 127 131z"/>
<path d="M6995 456 c-44 -44 -29 -91 45 -148 48 -36 59 -60 40 -83 -21 -25
-57 -17 -84 18 l-26 32 0 -40 0 -40 60 -3 c53 -3 63 0 85 22 45 46 31 97 -38
142 -72 45 -84 87 -29 101 20 5 30 0 47 -21 l22 -28 6 24 c11 41 8 44 -48 46
-47 2 -59 -1 -80 -22z"/>
<path d="M3153 459 c15 -9 17 -26 17 -125 0 -93 -3 -116 -15 -120 -32 -13 -13
-24 40 -24 53 0 72 11 40 24 -12 4 -15 27 -15 120 0 99 2 116 18 125 13 8 3
10 -43 10 -46 0 -56 -2 -42 -10z"/>
<path d="M3428 453 c20 -14 22 -23 22 -125 0 -87 -3 -110 -15 -114 -30 -12
-14 -24 30 -24 25 0 45 5 45 10 0 6 -7 10 -15 10 -12 0 -15 17 -15 90 0 50 2
90 3 90 2 0 43 -45 92 -100 48 -55 91 -100 96 -100 5 0 9 58 9 130 0 112 2
130 18 139 13 8 8 10 -27 11 -43 0 -43 -1 -27 -19 13 -15 16 -34 14 -96 l-3
-77 -84 96 c-81 93 -85 96 -125 95 -40 0 -41 0 -18 -16z"/>
<path d="M3884 451 c9 -10 38 -71 65 -137 27 -65 53 -120 58 -121 4 -2 28 53
52 122 28 81 51 131 65 140 19 14 17 15 -28 15 -42 0 -47 -2 -36 -15 14 -17 7
-53 -26 -132 l-16 -38 -29 70 c-31 78 -35 101 -16 108 6 3 -15 6 -47 6 -57 1
-58 0 -42 -18z"/>
<path d="M4303 459 c15 -9 17 -26 17 -125 0 -93 -3 -116 -15 -120 -39 -16 -7
-25 78 -22 l92 3 3 30 4 30 -22 -22 c-21 -23 -45 -28 -74 -17 -12 4 -16 20
-16 55 0 49 0 49 33 49 18 0 38 -5 45 -12 9 -9 12 -4 12 26 0 36 0 37 -22 22
-12 -9 -33 -16 -45 -16 -21 0 -23 4 -23 55 l0 55 40 0 c27 0 42 -6 49 -17 9
-15 10 -14 11 10 l0 27 -92 0 c-68 -1 -88 -3 -75 -11z"/>
<path d="M4654 454 c23 -22 23 -232 1 -240 -32 -13 -13 -24 40 -24 53 0 72 11
40 24 -11 4 -15 20 -15 56 0 27 4 50 8 50 12 0 44 -37 77 -87 25 -38 32 -43
66 -43 22 0 39 5 39 10 0 6 -4 10 -9 10 -5 0 -30 27 -55 60 -46 60 -46 60 -26
80 26 26 26 74 0 100 -17 17 -33 20 -101 20 -73 0 -79 -1 -65 -16z m120 -26
c9 -12 16 -27 16 -33 0 -18 -23 -43 -47 -50 -22 -6 -23 -4 -23 49 0 49 3 56
19 56 11 0 27 -10 35 -22z"/>
<path d="M5434 454 c23 -22 23 -232 1 -240 -32 -13 -13 -24 40 -24 53 0 72 11
40 24 -12 4 -15 27 -15 120 0 99 2 116 18 125 13 8 3 10 -41 11 -53 0 -57 -1
-43 -16z"/>
<path d="M6168 453 c21 -14 22 -23 22 -129 0 -95 -3 -114 -15 -114 -8 0 -15
-4 -15 -10 0 -5 20 -10 45 -10 48 0 55 6 30 24 -13 9 -15 29 -13 95 l3 84 89
-101 c49 -56 93 -102 98 -102 4 0 8 56 8 124 0 100 3 128 16 140 14 15 12 16
-27 16 -37 0 -40 -2 -25 -13 14 -10 16 -26 14 -94 l-3 -82 -84 94 c-80 91 -85
95 -125 94 -40 0 -41 0 -18 -16z"/>
<path d="M6623 459 c15 -9 17 -26 17 -125 0 -93 -3 -116 -15 -120 -38 -15 -7
-24 80 -24 l95 0 0 30 0 30 -20 -20 c-22 -22 -60 -26 -78 -8 -7 7 -12 31 -12
55 0 42 1 43 33 43 18 0 38 -5 45 -12 9 -9 12 -4 12 26 0 36 0 37 -22 22 -12
-9 -33 -16 -45 -16 -21 0 -23 4 -23 55 l0 55 40 0 c27 0 43 -5 46 -15 9 -24
24 -17 24 10 0 25 0 25 -97 25 -72 -1 -93 -3 -80 -11z"/>
</g>
</svg>
