<?xml version="1.0" standalone="no"?>
<!DOCTYPE svg PUBLIC "-//W3C//DTD SVG 20010904//EN"
 "http://www.w3.org/TR/2001/REC-SVG-20010904/DTD/svg10.dtd">
<svg version="1.0" xmlns="http://www.w3.org/2000/svg"
 width="798.000000pt" height="911.000000pt" viewBox="0 0 798.000000 911.000000"
 preserveAspectRatio="xMidYMid meet">

<g transform="translate(0.000000,911.000000) scale(0.100000,-0.100000)"
fill="#000000" stroke="none">
<path d="M6141 8828 c-300 -616 -469 -1016 -586 -1394 -26 -82 -89 -304 -141
-494 -191 -697 -270 -913 -410 -1128 -101 -155 -239 -323 -310 -377 l-34 -26
26 58 c289 644 600 1774 748 2713 34 217 98 683 112 823 5 49 4 67 -5 67 -29
0 -51 -23 -69 -72 -11 -29 -54 -123 -95 -208 -383 -796 -599 -1598 -752 -2794
-31 -240 -36 -302 -33 -445 2 -140 0 -171 -14 -197 -46 -85 -354 -466 -402
-498 -46 -29 -54 -22 -44 37 28 168 68 358 133 642 81 355 106 475 164 805
131 741 248 1505 345 2260 20 151 38 290 41 308 5 26 3 32 -13 32 -38 0 -92
-82 -178 -272 -227 -502 -418 -1290 -513 -2123 -36 -309 -44 -485 -37 -760 3
-143 9 -375 12 -516 7 -251 -2 -424 -27 -511 -14 -53 -93 -154 -241 -311 -70
-74 -135 -151 -144 -171 -10 -20 -25 -36 -35 -36 -39 0 -42 19 -36 283 8 361
40 641 192 1652 130 868 173 1235 195 1695 11 235 11 692 0 710 -4 7 -18 10
-31 8 -21 -3 -34 -37 -149 -378 -187 -554 -252 -843 -309 -1385 -37 -344 -43
-455 -48 -945 -6 -566 2 -724 53 -1065 36 -241 56 -544 40 -628 -7 -39 -86
-135 -386 -472 -259 -291 -336 -382 -525 -625 -87 -113 -207 -263 -265 -335
-59 -71 -115 -146 -125 -165 -22 -43 -34 -51 -57 -39 -17 9 -18 31 -18 312 0
840 -205 2416 -434 3342 -61 247 -152 565 -187 655 -29 74 -90 170 -109 170
-10 0 -19 -1139 -8 -1185 18 -77 38 -260 53 -470 17 -257 27 -346 56 -520 67
-407 159 -783 374 -1530 153 -533 227 -807 222 -825 -2 -10 -83 -112 -178
-228 -159 -193 -175 -209 -181 -186 -8 29 -43 294 -93 704 -44 356 -82 589
-146 890 -157 740 -409 1596 -692 2350 -46 124 -87 238 -91 255 -10 38 -24 55
-47 55 -23 0 -23 45 1 -494 25 -535 53 -756 176 -1361 140 -686 286 -1163 539
-1766 184 -436 269 -654 287 -727 11 -49 10 -52 -17 -89 -84 -112 -289 -332
-300 -321 -2 2 -20 85 -40 185 -145 740 -377 1402 -915 2624 -132 298 -171
376 -293 583 -110 184 -143 233 -145 213 -8 -61 102 -640 183 -972 156 -637
371 -1244 643 -1822 134 -283 238 -469 355 -637 58 -84 117 -174 132 -201 39
-75 28 -108 -95 -261 -36 -45 -81 -104 -100 -131 -20 -26 -192 -232 -383 -456
-191 -224 -347 -412 -347 -417 0 -8 285 -282 300 -288 4 -1 10 15 13 36 9 55
415 749 622 1063 97 146 176 248 210 269 32 19 86 6 602 -146 420 -123 484
-139 719 -178 587 -99 1223 -120 2001 -64 89 6 167 15 174 19 23 14 -16 56
-63 68 -24 5 -128 39 -233 75 -423 144 -1093 282 -1675 345 -300 33 -506 43
-748 38 -188 -4 -252 -9 -372 -31 -80 -15 -194 -29 -255 -33 l-109 -6 61 74
c33 41 91 119 129 174 80 117 136 174 197 203 155 73 371 56 1102 -88 677
-133 787 -145 1360 -144 412 1 644 13 1045 55 338 35 384 42 388 60 4 22 -23
48 -56 55 -15 3 -85 23 -157 45 -1154 347 -2527 404 -3532 145 -51 -13 -93
-22 -93 -20 0 8 445 589 565 739 110 137 208 253 312 369 l52 58 93 11 c115
13 926 15 1498 3 785 -16 1041 14 1925 223 187 45 351 83 364 87 13 3 20 9 15
13 -5 4 -101 27 -214 49 l-205 42 -395 11 c-791 22 -1377 -14 -1915 -117 -184
-36 -291 -64 -525 -139 -332 -106 -569 -160 -593 -136 -16 16 -4 33 163 227
80 93 176 207 214 254 37 47 77 95 87 107 10 13 30 23 43 23 13 0 185 16 382
35 198 19 483 46 634 60 1243 116 1955 244 2658 477 148 49 153 51 150 77 l-3
26 -345 3 c-458 4 -793 -14 -1230 -68 -354 -44 -772 -122 -1095 -205 -224 -57
-291 -79 -605 -195 -302 -112 -518 -182 -531 -174 -18 11 -8 36 34 82 24 26
112 129 196 230 228 272 243 288 309 312 107 41 267 69 579 104 760 85 1784
347 2510 642 188 76 495 216 488 222 -3 3 -78 16 -168 28 l-162 23 -187 -24
c-555 -74 -1105 -201 -1643 -380 -387 -128 -577 -204 -880 -355 -260 -129
-357 -169 -445 -185 -19 -4 -43 -9 -53 -12 -17 -4 -17 -2 2 35 60 118 265 343
407 449 163 120 326 188 664 274 276 71 472 130 725 219 694 244 1109 438
1510 705 110 74 236 153 280 176 44 23 82 44 83 45 8 6 -10 42 -22 47 -8 3
-31 1 -52 -4 -22 -5 -93 -18 -159 -30 -410 -69 -908 -237 -1399 -473 -185 -89
-299 -154 -621 -356 -316 -198 -399 -247 -546 -321 -193 -96 -319 -140 -319
-111 0 4 16 24 36 43 20 18 114 124 209 234 270 313 395 425 559 500 39 18
159 63 266 100 348 119 989 452 1405 728 146 98 322 227 430 317 121 101 324
290 336 313 11 19 9 20 -20 14 -76 -16 -351 -155 -700 -354 -222 -127 -313
-185 -764 -485 -214 -142 -459 -300 -545 -351 -185 -110 -411 -231 -418 -224
-3 3 6 27 20 55 50 99 207 219 606 465 569 350 1260 976 1664 1506 84 110 246
344 246 356 0 3 -11 5 -25 5 -57 0 -191 -87 -360 -235 -38 -33 -90 -75 -115
-92 -25 -17 -432 -400 -905 -850 -473 -451 -862 -815 -863 -811 -6 13 29 62
218 308 685 888 1159 1604 1346 2034 41 93 74 174 74 180 0 16 -80 -66 -210
-214 -308 -352 -594 -739 -915 -1240 -133 -206 -188 -299 -450 -765 -194 -344
-376 -597 -546 -760 l-62 -60 25 45 c15 25 112 190 216 368 156 264 205 357
272 515 313 737 485 1261 589 1792 53 272 76 419 68 438 -4 10 -17 17 -32 17
-25 0 -36 -20 -164 -282z"/>
<path d="M3050 8169 c-27 -49 -114 -627 -149 -979 -38 -380 -43 -474 -48 -942
-7 -592 11 -942 72 -1448 27 -218 32 -247 95 -550 44 -212 66 -395 57 -472 -5
-42 -4 -48 12 -48 10 0 28 8 40 18 l21 17 -15 224 c-17 245 -19 173 50 1336
37 632 45 872 45 1347 0 529 -10 709 -55 988 -38 233 -58 430 -49 467 13 49
-54 85 -76 42z"/>
<path d="M2293 7703 c-34 -50 -41 -78 -77 -285 -76 -436 -100 -723 -99 -1198
1 -784 104 -1611 288 -2320 102 -395 145 -612 145 -734 0 -49 8 -55 48 -32
l24 13 -1 784 c-2 1058 -15 1401 -81 2189 -35 406 -70 749 -95 920 -33 221
-115 673 -125 683 -4 5 -16 -4 -27 -20z"/>
<path d="M4325 2884 c-445 -17 -857 -66 -1295 -155 -274 -56 -380 -83 -495
-129 -29 -11 -29 -12 -11 -26 29 -20 126 -17 226 7 125 31 303 23 1125 -51
1045 -93 1555 -98 2074 -20 106 16 563 132 554 141 -9 9 -272 66 -473 103
-282 52 -616 93 -935 115 -154 11 -629 20 -770 15z"/>
</g>
</svg>
